STARTFONT 2.1
FONT -FontForge-Barlow Condensed Medium-Medium-R-Condensed---28-200-100-100-P-110-ISO10646-1
SIZE 20 100 100
FONTBOUNDINGBOX 22 28 -1 -5
COMMENT "Generated by fontforge, http://fontforge.sourceforge.net"
COMMENT "Copyright 2017 The Barlow Project Authors (https://github.com/jpt/barlow)"
STARTPROPERTIES 39
FOUNDRY "FontForge"
FAMILY_NAME "Barlow Condensed Medium"
WEIGHT_NAME "Medium"
SLANT "R"
SETWIDTH_NAME "Condensed"
ADD_STYLE_NAME ""
PIXEL_SIZE 28
POINT_SIZE 200
RESOLUTION_X 100
RESOLUTION_Y 100
SPACING "P"
AVERAGE_WIDTH 110
CHARSET_REGISTRY "ISO10646"
CHARSET_ENCODING "1"
FONTNAME_REGISTRY ""
CHARSET_COLLECTIONS "ISO10646-1"
FONT_NAME "BarlowCondensed-Medium"
FACE_NAME "Barlow Condensed Medium"
COPYRIGHT "Copyright 2017 The Barlow Project Authors (https://github.com/jpt/barlow)"
FONT_VERSION "1.408"
FONT_ASCENT 22
FONT_DESCENT 6
UNDERLINE_POSITION -3
UNDERLINE_THICKNESS 2
X_HEIGHT 14
CAP_HEIGHT 19
RAW_ASCENT 800
RAW_DESCENT 200
NORM_SPACE 6
RELATIVE_WEIGHT 50
RELATIVE_SETWIDTH 30
SUPERSCRIPT_X 0
SUPERSCRIPT_Y 9
SUPERSCRIPT_SIZE 16
SUBSCRIPT_X 0
SUBSCRIPT_Y 2
SUBSCRIPT_SIZE 16
AVG_LOWERCASE_WIDTH 110
AVG_UPPERCASE_WIDTH 125
ENDPROPERTIES
CHARS 98
STARTCHAR space
ENCODING 32
SWIDTH 200 0
DWIDTH 6 0
BBX 1 1 0 0
BITMAP
00
ENDCHAR
STARTCHAR exclam
ENCODING 33
SWIDTH 261 0
DWIDTH 7 0
BBX 4 19 2 1
BITMAP
70
70
70
70
60
60
60
60
60
60
60
60
60
00
00
00
70
F0
F0
ENDCHAR
STARTCHAR quotedbl
ENCODING 34
SWIDTH 274 0
DWIDTH 8 0
BBX 7 6 1 14
BITMAP
EE
E6
66
66
66
66
ENDCHAR
STARTCHAR numbersign
ENCODING 35
SWIDTH 599 0
DWIDTH 17 0
BBX 13 18 2 1
BITMAP
1C70
1C70
1C70
1C70
FFF8
FFF8
FFF8
38E0
38E0
38E0
38E0
FFF8
FFF8
70E0
71C0
71C0
71C0
71C0
ENDCHAR
STARTCHAR dollar
ENCODING 36
SWIDTH 426 0
DWIDTH 12 0
BBX 11 25 1 -2
BITMAP
0C00
0C00
0C00
0C00
7F80
7FC0
71C0
E1C0
E1C0
7000
7000
3C00
3C00
0F00
0780
01C0
01C0
E0E0
E0E0
71C0
7F80
7F80
0F00
0600
0600
ENDCHAR
STARTCHAR percent
ENCODING 37
SWIDTH 776 0
DWIDTH 22 0
BBX 19 20 2 0
BITMAP
1E0300
770600
630C00
C18C00
C19800
631800
7F3000
1E3000
006000
006000
00C000
00C200
018780
019FC0
0318C0
063060
063060
0C18C0
0C1FC0
180780
ENDCHAR
STARTCHAR ampersand
ENCODING 38
SWIDTH 564 0
DWIDTH 16 0
BBX 14 20 1 0
BITMAP
0400
1FC0
3FE0
39C0
70E0
38E0
39C0
3BC0
1F00
0F00
1F00
7F00
738C
71DC
E0F8
E0F0
70F0
7FF8
7FDC
3F0C
ENDCHAR
STARTCHAR quotesingle
ENCODING 39
SWIDTH 137 0
DWIDTH 4 0
BBX 3 6 1 14
BITMAP
E0
E0
E0
E0
60
60
ENDCHAR
STARTCHAR parenleft
ENCODING 40
SWIDTH 254 0
DWIDTH 7 0
BBX 5 24 1 -2
BITMAP
38
38
70
70
70
E0
E0
E0
E0
E0
E0
E0
E0
E0
E0
E0
E0
E0
E0
E0
70
70
70
38
ENDCHAR
STARTCHAR parenright
ENCODING 41
SWIDTH 254 0
DWIDTH 7 0
BBX 6 24 2 -2
BITMAP
E0
70
70
38
38
38
38
1C
1C
1C
1C
1C
1C
1C
1C
1C
1C
38
38
38
38
70
70
70
ENDCHAR
STARTCHAR asterisk
ENCODING 42
SWIDTH 361 0
DWIDTH 10 0
BBX 10 9 1 12
BITMAP
0C00
4C80
EDC0
7F00
1C00
3F00
EF80
4C80
0C00
ENDCHAR
STARTCHAR plus
ENCODING 43
SWIDTH 440 0
DWIDTH 12 0
BBX 11 11 1 4
BITMAP
0600
0600
0600
0600
0600
FFE0
FFE0
0600
0600
0600
0600
ENDCHAR
STARTCHAR comma
ENCODING 44
SWIDTH 189 0
DWIDTH 5 0
BBX 3 7 1 -2
BITMAP
60
60
60
E0
60
60
C0
ENDCHAR
STARTCHAR hyphen
ENCODING 45
SWIDTH 320 0
DWIDTH 9 0
BBX 7 2 2 8
BITMAP
FE
FE
ENDCHAR
STARTCHAR period
ENCODING 46
SWIDTH 202 0
DWIDTH 6 0
BBX 4 4 1 0
BITMAP
70
F0
F0
20
ENDCHAR
STARTCHAR slash
ENCODING 47
SWIDTH 363 0
DWIDTH 10 0
BBX 8 20 2 0
BITMAP
07
0E
0E
0E
0E
1C
1C
1C
38
38
38
38
70
70
70
E0
E0
E0
E0
C0
ENDCHAR
STARTCHAR zero
ENCODING 48
SWIDTH 447 0
DWIDTH 13 0
BBX 11 20 1 0
BITMAP
1F00
3F80
7FC0
71C0
E0E0
E0E0
E0E0
E0E0
E0E0
E0E0
E0E0
E0E0
E0E0
E0E0
E0E0
E0E0
71C0
7FC0
3F80
1F00
ENDCHAR
STARTCHAR one
ENCODING 49
SWIDTH 266 0
DWIDTH 7 0
BBX 6 20 0 0
BITMAP
3C
FC
FC
1C
1C
1C
1C
1C
1C
1C
1C
1C
1C
1C
1C
1C
1C
1C
1C
1C
ENDCHAR
STARTCHAR two
ENCODING 50
SWIDTH 415 0
DWIDTH 12 0
BBX 11 20 1 0
BITMAP
1F00
3F80
7FC0
71C0
E1C0
E1C0
01C0
01C0
0380
0380
0700
0F00
0E00
1C00
3800
3800
7000
7FE0
7FE0
7FE0
ENDCHAR
STARTCHAR three
ENCODING 51
SWIDTH 418 0
DWIDTH 12 0
BBX 10 20 1 0
BITMAP
7FC0
7FC0
01C0
03C0
0780
0F00
1E00
1E00
0F80
0380
01C0
01C0
01C0
01C0
E1C0
E1C0
71C0
7F80
3F80
1F00
ENDCHAR
STARTCHAR four
ENCODING 52
SWIDTH 440 0
DWIDTH 12 0
BBX 11 20 2 0
BITMAP
1C00
1C00
1C00
3800
3800
3800
7000
7000
71C0
E1C0
E1C0
E1C0
FFE0
FFE0
01C0
01C0
01C0
01C0
01C0
01C0
ENDCHAR
STARTCHAR five
ENCODING 53
SWIDTH 420 0
DWIDTH 12 0
BBX 10 20 1 0
BITMAP
FFC0
FFC0
E000
E000
E000
E000
E000
E700
FF80
FF80
F9C0
E1C0
01C0
01C0
01C0
E1C0
71C0
7F80
3F80
3F00
ENDCHAR
STARTCHAR six
ENCODING 54
SWIDTH 420 0
DWIDTH 12 0
BBX 10 20 1 0
BITMAP
1F00
3F80
7FC0
71C0
E1C0
E000
E000
EE00
FF00
FF80
F3C0
E1C0
E1C0
E1C0
E1C0
E1C0
73C0
7F80
3F00
3F00
ENDCHAR
STARTCHAR seven
ENCODING 55
SWIDTH 381 0
DWIDTH 11 0
BBX 10 20 1 0
BITMAP
FFC0
FFC0
61C0
61C0
01C0
0380
0380
0380
0380
0700
0700
0700
0E00
0E00
0E00
0E00
1C00
1C00
1C00
3800
ENDCHAR
STARTCHAR eight
ENCODING 56
SWIDTH 429 0
DWIDTH 12 0
BBX 10 20 1 0
BITMAP
3F00
7F80
7F80
F3C0
E1C0
E1C0
61C0
6180
7F80
3F00
7F80
7380
E1C0
E1C0
E1C0
E1C0
F3C0
7FC0
3F80
1F00
ENDCHAR
STARTCHAR nine
ENCODING 57
SWIDTH 414 0
DWIDTH 12 0
BBX 10 20 1 0
BITMAP
3F00
7F80
FFC0
F3C0
E1C0
E1C0
E1C0
E1C0
73C0
7FC0
7FC0
3FC0
01C0
01C0
71C0
71C0
73C0
7F80
3F80
0E00
ENDCHAR
STARTCHAR colon
ENCODING 58
SWIDTH 214 0
DWIDTH 6 0
BBX 3 12 2 1
BITMAP
E0
E0
E0
00
00
00
00
00
00
E0
E0
E0
ENDCHAR
STARTCHAR semicolon
ENCODING 59
SWIDTH 207 0
DWIDTH 6 0
BBX 4 16 1 -2
BITMAP
20
70
F0
70
00
00
00
00
00
30
60
70
E0
60
60
60
ENDCHAR
STARTCHAR less
ENCODING 60
SWIDTH 440 0
DWIDTH 12 0
BBX 11 13 1 2
BITMAP
0020
00E0
07E0
0FC0
1F00
7C00
E000
7800
3E00
0FC0
03E0
00E0
0020
ENDCHAR
STARTCHAR equal
ENCODING 61
SWIDTH 440 0
DWIDTH 12 0
BBX 11 7 1 6
BITMAP
FFE0
FFE0
0000
0000
0000
FFE0
FFE0
ENDCHAR
STARTCHAR greater
ENCODING 62
SWIDTH 440 0
DWIDTH 12 0
BBX 12 13 1 2
BITMAP
8000
6000
7800
7E00
1F80
03E0
00E0
03F0
07C0
1F00
7C00
7000
4000
ENDCHAR
STARTCHAR question
ENCODING 63
SWIDTH 394 0
DWIDTH 11 0
BBX 10 19 1 1
BITMAP
0400
3F80
7FC0
71C0
E1C0
E1C0
01C0
01C0
0380
0700
0F00
0E00
1C00
1C00
0000
0000
1C00
1E00
1E00
ENDCHAR
STARTCHAR at
ENCODING 64
SWIDTH 759 0
DWIDTH 21 0
BBX 19 20 1 -2
BITMAP
001000
03FE00
0FE380
1E01C0
1800C0
307860
31F860
61B860
631860
631860
631860
C31860
C318C0
63FF80
E3FF80
600000
700000
1C0400
0FFC00
0FE000
ENDCHAR
STARTCHAR A
ENCODING 65
SWIDTH 436 0
DWIDTH 12 0
BBX 12 20 0 0
BITMAP
0700
0F00
0F00
0F80
0D80
0D80
1B80
19C0
1D80
38C0
19C0
31C0
38E0
38E0
3FE0
7FE0
7070
7070
E070
6030
ENDCHAR
STARTCHAR B
ENCODING 66
SWIDTH 456 0
DWIDTH 13 0
BBX 11 20 2 0
BITMAP
F800
FF80
E7C0
E1C0
E0E0
E0E0
E0E0
E1C0
FF80
FF00
E780
E1C0
E0E0
E0E0
E0E0
E0E0
E1C0
7FC0
FF80
7C00
ENDCHAR
STARTCHAR C
ENCODING 67
SWIDTH 452 0
DWIDTH 13 0
BBX 11 20 1 0
BITMAP
0400
3FC0
7FE0
71C0
E0E0
E0E0
E000
E000
E000
E000
E000
E000
E000
E000
E0E0
E0E0
71C0
7FC0
3FC0
0F00
ENDCHAR
STARTCHAR D
ENCODING 68
SWIDTH 469 0
DWIDTH 13 0
BBX 11 20 2 0
BITMAP
F800
FF80
E3C0
E1C0
E1C0
E0E0
E0E0
E0E0
E0E0
E0E0
E0E0
E0E0
E0E0
E0E0
E0E0
E1C0
E1C0
7FC0
FF80
7C00
ENDCHAR
STARTCHAR E
ENCODING 69
SWIDTH 432 0
DWIDTH 12 0
BBX 10 20 2 0
BITMAP
7FC0
7FC0
E000
E000
E000
E000
E000
E000
E000
FE00
FE00
E000
E000
E000
E000
E000
E000
7FC0
7FC0
7FC0
ENDCHAR
STARTCHAR F
ENCODING 70
SWIDTH 410 0
DWIDTH 11 0
BBX 10 20 2 0
BITMAP
7FC0
7FC0
E000
E000
E000
E000
E000
E000
E000
FE00
FE00
E000
E000
E000
E000
E000
E000
E000
E000
6000
ENDCHAR
STARTCHAR G
ENCODING 71
SWIDTH 457 0
DWIDTH 13 0
BBX 11 20 1 0
BITMAP
0400
3FC0
7FE0
71C0
E0E0
E0E0
E000
E000
E000
E7C0
E7C0
E7C0
E0E0
E0E0
E0E0
E0E0
71C0
7FC0
3FC0
0F00
ENDCHAR
STARTCHAR H
ENCODING 72
SWIDTH 475 0
DWIDTH 13 0
BBX 10 20 2 0
BITMAP
E1C0
E1C0
E1C0
E1C0
E1C0
E1C0
E1C0
E1C0
E1C0
FFC0
FFC0
E1C0
E1C0
E1C0
E1C0
E1C0
E1C0
E1C0
E1C0
61C0
ENDCHAR
STARTCHAR I
ENCODING 73
SWIDTH 220 0
DWIDTH 6 0
BBX 3 20 2 0
BITMAP
E0
E0
E0
E0
E0
E0
E0
E0
E0
E0
E0
E0
E0
E0
E0
E0
E0
E0
E0
60
ENDCHAR
STARTCHAR J
ENCODING 74
SWIDTH 435 0
DWIDTH 12 0
BBX 11 20 1 0
BITMAP
00E0
00E0
00E0
00E0
00E0
00E0
00E0
00E0
00E0
00E0
00E0
00E0
60E0
E0E0
E0E0
E0E0
71C0
7FC0
7F80
1E00
ENDCHAR
STARTCHAR K
ENCODING 75
SWIDTH 466 0
DWIDTH 13 0
BBX 11 20 2 0
BITMAP
E0E0
E1C0
E1C0
E380
E380
E700
EE00
EE00
EE00
FE00
7F00
F700
E700
E380
E380
E1C0
E1C0
E0E0
E0E0
60E0
ENDCHAR
STARTCHAR L
ENCODING 76
SWIDTH 407 0
DWIDTH 11 0
BBX 10 20 2 0
BITMAP
E000
E000
E000
E000
E000
E000
E000
E000
E000
E000
E000
E000
E000
E000
E000
E000
E000
7FC0
7FC0
7FC0
ENDCHAR
STARTCHAR M
ENCODING 77
SWIDTH 530 0
DWIDTH 15 0
BBX 12 20 2 0
BITMAP
E070
7070
78F0
F9F0
7DF0
FFF0
EFF0
EF70
E770
E270
E270
E070
E070
E070
E070
E070
E070
E070
E070
6030
ENDCHAR
STARTCHAR N
ENCODING 78
SWIDTH 501 0
DWIDTH 14 0
BBX 11 20 2 0
BITMAP
70E0
70E0
F0E0
78E0
F8E0
F8E0
FCE0
FCE0
EEE0
EEE0
E7E0
E7E0
E7E0
E7E0
E3E0
E3E0
E1E0
E1E0
E1E0
6060
ENDCHAR
STARTCHAR O
ENCODING 79
SWIDTH 462 0
DWIDTH 13 0
BBX 11 20 1 0
BITMAP
0400
3FC0
7FE0
71C0
E0E0
E0E0
E0E0
E0E0
E0E0
E0E0
E0E0
E0E0
E0E0
E0E0
E0E0
E0E0
71C0
7FC0
3FC0
0F00
ENDCHAR
STARTCHAR P
ENCODING 80
SWIDTH 451 0
DWIDTH 13 0
BBX 11 20 2 0
BITMAP
7C00
FF80
E7C0
E1C0
E0E0
E0E0
E0E0
E1C0
E1C0
FF80
FF80
E000
E000
E000
E000
E000
E000
E000
E000
6000
ENDCHAR
STARTCHAR Q
ENCODING 81
SWIDTH 450 0
DWIDTH 13 0
BBX 11 23 1 -3
BITMAP
0400
7F80
7FC0
71C0
E0E0
E0E0
E0E0
E0E0
E0E0
E0E0
E0E0
E0E0
E0E0
E0E0
E0E0
E0E0
71C0
7F80
7F80
0E00
0E00
0E00
0E00
ENDCHAR
STARTCHAR R
ENCODING 82
SWIDTH 453 0
DWIDTH 13 0
BBX 11 20 2 0
BITMAP
7C00
FF00
E7C0
E1C0
E0E0
E0E0
E0E0
E1C0
E1C0
7FC0
7F00
E700
E380
E380
E380
E1C0
E1C0
E1C0
E0E0
60C0
ENDCHAR
STARTCHAR S
ENCODING 83
SWIDTH 426 0
DWIDTH 12 0
BBX 11 20 1 0
BITMAP
0400
3F80
7FC0
71C0
E1C0
E1C0
7000
7000
3C00
3C00
0F00
0780
01C0
01C0
E0E0
E0E0
71C0
7F80
7F80
1E00
ENDCHAR
STARTCHAR T
ENCODING 84
SWIDTH 439 0
DWIDTH 12 0
BBX 11 20 1 0
BITMAP
FFE0
FFE0
0E00
0E00
0E00
0E00
0E00
0E00
0E00
0E00
0E00
0E00
0E00
0E00
0E00
0E00
0E00
0E00
0E00
0600
ENDCHAR
STARTCHAR U
ENCODING 85
SWIDTH 477 0
DWIDTH 13 0
BBX 11 20 2 0
BITMAP
E0E0
E0E0
E0E0
E0E0
E0E0
E0E0
E0E0
E0E0
E0E0
E0E0
E0E0
E0E0
E0E0
E0E0
E0E0
E0E0
71C0
3FC0
3FC0
0F00
ENDCHAR
STARTCHAR V
ENCODING 86
SWIDTH 457 0
DWIDTH 13 0
BBX 12 20 1 0
BITMAP
E070
70E0
70E0
70E0
70E0
70E0
39C0
39C0
39C0
3980
39C0
1F80
1D80
1D80
0F00
0F80
0F80
0F00
0700
0700
ENDCHAR
STARTCHAR W
ENCODING 87
SWIDTH 646 0
DWIDTH 18 0
BBX 17 20 1 0
BITMAP
E1C380
71C380
71C380
71C380
71E380
71E700
39F700
39E700
3B6600
3B3700
3B3E00
3B3E00
1F3E00
1F3E00
1E3C00
1E3C00
1E3C00
1E1C00
0E1C00
061800
ENDCHAR
STARTCHAR X
ENCODING 88
SWIDTH 449 0
DWIDTH 13 0
BBX 11 20 1 0
BITMAP
E0E0
70E0
71C0
39C0
39C0
3B80
1F00
1F00
0F00
0E00
0E00
0F00
1F00
1F80
3B80
39C0
71C0
70E0
70E0
6060
ENDCHAR
STARTCHAR Y
ENCODING 89
SWIDTH 442 0
DWIDTH 12 0
BBX 10 19 2 1
BITMAP
E1C0
E1C0
E380
7380
7380
7700
3B00
3700
3E00
1E00
1C00
1C00
1C00
1C00
1C00
1C00
1C00
1C00
1C00
ENDCHAR
STARTCHAR Z
ENCODING 90
SWIDTH 401 0
DWIDTH 11 0
BBX 9 20 2 0
BITMAP
FF80
FF80
0380
0700
0700
0700
0E00
0E00
1C00
1C00
3800
3800
7000
7000
7000
E000
E000
FF80
FF80
FF80
ENDCHAR
STARTCHAR bracketleft
ENCODING 91
SWIDTH 318 0
DWIDTH 9 0
BBX 6 25 1 -3
BITMAP
7C
7C
E0
E0
E0
E0
E0
E0
E0
E0
E0
E0
E0
E0
E0
E0
E0
E0
E0
E0
E0
E0
E0
7C
7C
ENDCHAR
STARTCHAR backslash
ENCODING 92
SWIDTH 363 0
DWIDTH 10 0
BBX 9 20 1 0
BITMAP
E000
7000
7000
7000
3800
3800
3800
3800
1C00
1C00
1C00
0E00
0E00
0E00
0E00
0700
0700
0700
0380
0300
ENDCHAR
STARTCHAR bracketright
ENCODING 93
SWIDTH 318 0
DWIDTH 9 0
BBX 5 25 4 -3
BITMAP
F8
F8
38
38
38
38
38
38
38
38
38
38
38
38
38
38
38
38
38
38
38
38
38
F8
F8
ENDCHAR
STARTCHAR asciicircum
ENCODING 94
SWIDTH 406 0
DWIDTH 11 0
BBX 9 11 2 9
BITMAP
1C00
1C00
3C00
7600
3600
6600
7600
6300
C300
E300
C180
ENDCHAR
STARTCHAR underscore
ENCODING 95
SWIDTH 392 0
DWIDTH 11 0
BBX 10 3 1 0
BITMAP
FFC0
FFC0
FFC0
ENDCHAR
STARTCHAR grave
ENCODING 96
SWIDTH 194 0
DWIDTH 5 0
BBX 4 4 2 16
BITMAP
C0
C0
60
30
ENDCHAR
STARTCHAR a
ENCODING 97
SWIDTH 425 0
DWIDTH 12 0
BBX 11 15 1 0
BITMAP
0400
3F80
3FC0
71E0
01C0
01C0
03E0
3FE0
7DC0
71C0
E1C0
E1C0
FFC0
7FC0
3FC0
ENDCHAR
STARTCHAR b
ENCODING 98
SWIDTH 431 0
DWIDTH 12 0
BBX 10 20 1 0
BITMAP
E000
E000
E000
E000
E000
E400
7F80
7FC0
71C0
E1C0
E1C0
E1C0
E1C0
E1C0
E1C0
E1C0
71C0
FF80
7F80
6780
ENDCHAR
STARTCHAR c
ENCODING 99
SWIDTH 413 0
DWIDTH 12 0
BBX 10 15 1 0
BITMAP
0400
3F00
7FC0
71C0
E1C0
E000
E000
E000
E000
E000
E1C0
71C0
7FC0
3F80
3F80
ENDCHAR
STARTCHAR d
ENCODING 100
SWIDTH 431 0
DWIDTH 12 0
BBX 10 20 1 0
BITMAP
01C0
01C0
01C0
01C0
01C0
05C0
3FC0
7FC0
71C0
E1C0
E1C0
E1C0
E1C0
E1C0
E1C0
E1C0
71C0
7FC0
3FC0
3CC0
ENDCHAR
STARTCHAR e
ENCODING 101
SWIDTH 417 0
DWIDTH 12 0
BBX 10 15 1 0
BITMAP
0400
3F80
7FC0
71C0
E1C0
E1C0
7FC0
7FC0
7FC0
E000
E100
71C0
7FC0
3F80
3F80
ENDCHAR
STARTCHAR f
ENCODING 102
SWIDTH 285 0
DWIDTH 8 0
BBX 6 20 2 0
BITMAP
04
3C
78
70
70
FC
FC
70
70
70
70
70
70
70
70
70
70
70
70
60
ENDCHAR
STARTCHAR g
ENCODING 103
SWIDTH 423 0
DWIDTH 12 0
BBX 10 20 1 -5
BITMAP
08C0
3FC0
7FC0
71C0
E1C0
E1C0
E1C0
E1C0
E1C0
E1C0
E1C0
71C0
7FC0
7FC0
09C0
01C0
01C0
0380
1F80
1F80
ENDCHAR
STARTCHAR h
ENCODING 104
SWIDTH 432 0
DWIDTH 12 0
BBX 10 20 1 0
BITMAP
E000
E000
E000
E000
E000
E200
7F80
FF80
71C0
E1C0
E1C0
E1C0
E1C0
E1C0
E1C0
E1C0
E1C0
E1C0
E1C0
6180
ENDCHAR
STARTCHAR i
ENCODING 105
SWIDTH 212 0
DWIDTH 6 0
BBX 4 21 1 0
BITMAP
20
70
F0
70
00
00
60
70
70
70
70
70
70
70
70
70
70
70
70
70
60
ENDCHAR
STARTCHAR j
ENCODING 106
SWIDTH 206 0
DWIDTH 6 0
BBX 6 26 -1 -5
BITMAP
08
1C
3C
1C
00
00
18
1C
1C
1C
1C
1C
1C
1C
1C
1C
1C
1C
1C
1C
1C
1C
1C
38
F8
F0
ENDCHAR
STARTCHAR k
ENCODING 107
SWIDTH 421 0
DWIDTH 12 0
BBX 10 20 1 0
BITMAP
E000
E000
E000
E000
E000
E1C0
E380
E700
E700
EE00
EE00
FE00
7E00
F700
E380
E380
E380
E1C0
E1C0
60C0
ENDCHAR
STARTCHAR l
ENCODING 108
SWIDTH 191 0
DWIDTH 5 0
BBX 3 20 1 0
BITMAP
E0
E0
E0
E0
E0
E0
E0
E0
E0
E0
E0
E0
E0
E0
E0
E0
E0
E0
E0
60
ENDCHAR
STARTCHAR m
ENCODING 109
SWIDTH 657 0
DWIDTH 18 0
BBX 16 15 1 0
BITMAP
6C08
7FBE
7FFF
73C7
E1C7
E1C7
E1C7
E1C7
E1C7
E1C7
E1C7
E1C7
E1C7
E1C7
6183
ENDCHAR
STARTCHAR n
ENCODING 110
SWIDTH 432 0
DWIDTH 12 0
BBX 10 15 1 0
BITMAP
6200
7F80
FF80
71C0
E1C0
E1C0
E1C0
E1C0
E1C0
E1C0
E1C0
E1C0
E1C0
E1C0
6180
ENDCHAR
STARTCHAR o
ENCODING 111
SWIDTH 424 0
DWIDTH 12 0
BBX 10 15 1 0
BITMAP
0400
3F80
7FC0
71C0
E1C0
E1C0
E1C0
E1C0
E1C0
E1C0
E1C0
71C0
7F80
3F80
3F80
ENDCHAR
STARTCHAR p
ENCODING 112
SWIDTH 435 0
DWIDTH 12 0
BBX 10 20 2 -5
BITMAP
6400
7F80
7FC0
71C0
E1C0
E1C0
E1C0
E1C0
E1C0
E1C0
E1C0
71C0
FF80
7F80
E780
E000
E000
E000
E000
E000
ENDCHAR
STARTCHAR q
ENCODING 113
SWIDTH 435 0
DWIDTH 12 0
BBX 10 20 1 -5
BITMAP
04C0
3FC0
7FC0
71C0
E1C0
E1C0
E1C0
E1C0
E1C0
E1C0
E1C0
71C0
7FC0
3FC0
3DC0
01C0
01C0
01C0
01C0
01C0
ENDCHAR
STARTCHAR r
ENCODING 114
SWIDTH 304 0
DWIDTH 9 0
BBX 7 15 1 0
BITMAP
6E
FE
7E
F8
70
E0
E0
E0
E0
E0
E0
E0
E0
E0
60
ENDCHAR
STARTCHAR s
ENCODING 115
SWIDTH 387 0
DWIDTH 11 0
BBX 10 15 1 0
BITMAP
0800
3F80
7FC0
7380
E1C0
7000
7C00
1F00
3F80
0780
61C0
E1C0
7380
3F80
3F80
ENDCHAR
STARTCHAR t
ENCODING 116
SWIDTH 275 0
DWIDTH 8 0
BBX 6 18 2 0
BITMAP
70
70
70
FC
FC
70
70
70
70
70
70
70
70
70
70
7C
3C
04
ENDCHAR
STARTCHAR u
ENCODING 117
SWIDTH 432 0
DWIDTH 12 0
BBX 10 15 1 0
BITMAP
6180
E1C0
E1C0
E1C0
E1C0
E1C0
E1C0
E1C0
E1C0
E1C0
E1C0
E1C0
7FC0
7FC0
3D80
ENDCHAR
STARTCHAR v
ENCODING 118
SWIDTH 399 0
DWIDTH 11 0
BBX 11 15 1 0
BITMAP
E0E0
71C0
71C0
71C0
71C0
3B80
3B80
3B80
3B80
1F00
1F00
1E00
1E00
1E00
0C00
ENDCHAR
STARTCHAR w
ENCODING 119
SWIDTH 575 0
DWIDTH 16 0
BBX 15 15 1 0
BITMAP
6186
E38E
738E
63C6
33CC
33EE
73DC
36CC
366C
1E78
1E7C
1E78
1C38
1C38
0C38
ENDCHAR
STARTCHAR x
ENCODING 120
SWIDTH 398 0
DWIDTH 11 0
BBX 11 15 1 0
BITMAP
E0E0
71C0
71C0
3B80
3B80
1F80
0F00
0F00
0F00
1F80
3B80
3B80
71C0
71C0
E0C0
ENDCHAR
STARTCHAR y
ENCODING 121
SWIDTH 387 0
DWIDTH 11 0
BBX 11 20 0 -5
BITMAP
E0E0
71C0
71C0
71C0
71C0
3B80
3B80
1B00
1B80
1F00
1B00
1E00
1E00
1E00
0E00
0C00
1C00
0C00
7800
7000
ENDCHAR
STARTCHAR z
ENCODING 122
SWIDTH 365 0
DWIDTH 10 0
BBX 9 15 1 0
BITMAP
7F80
FF80
FF80
0380
0F00
0E00
0E00
1C00
1C00
3C00
7000
7000
FF80
FF80
7F80
ENDCHAR
STARTCHAR braceleft
ENCODING 123
SWIDTH 298 0
DWIDTH 8 0
BBX 6 25 2 -3
BITMAP
0C
7C
70
70
70
70
70
70
70
70
70
F0
E0
F0
70
70
70
70
70
70
70
70
70
7C
3C
ENDCHAR
STARTCHAR bar
ENCODING 124
SWIDTH 159 0
DWIDTH 4 0
BBX 3 24 1 -2
BITMAP
60
E0
E0
E0
E0
E0
E0
E0
E0
E0
E0
E0
E0
E0
E0
E0
E0
E0
E0
E0
E0
E0
E0
E0
ENDCHAR
STARTCHAR braceright
ENCODING 125
SWIDTH 298 0
DWIDTH 8 0
BBX 7 25 1 -3
BITMAP
60
F8
1C
1C
1C
1C
1C
1C
1C
1C
1C
1E
0E
1E
1C
1C
1C
1C
1C
1C
1C
1C
1C
F8
78
ENDCHAR
STARTCHAR asciitilde
ENCODING 126
SWIDTH 471 0
DWIDTH 13 0
BBX 11 4 2 7
BITMAP
2000
F860
FFE0
E7C0
ENDCHAR
STARTCHAR exclamdown
ENCODING 161
SWIDTH 261 0
DWIDTH 7 0
BBX 4 19 2 1
BITMAP
70
F0
F0
00
00
00
60
60
60
60
60
60
60
60
60
70
70
70
70
ENDCHAR
STARTCHAR degree
ENCODING 176
SWIDTH 358 0
DWIDTH 10 0
BBX 10 9 1 14
BITMAP
0800
3E00
7F80
E1C0
C0C0
6180
7180
7F80
3E00
ENDCHAR
STARTCHAR questiondown
ENCODING 191
SWIDTH 394 0
DWIDTH 11 0
BBX 10 19 1 -5
BITMAP
0E00
0F00
0E00
0000
0000
0600
0E00
0E00
0E00
1E00
3C00
7800
7000
E1C0
E1C0
E1C0
71C0
7F80
3F80
ENDCHAR
ENDFONT
